HIERARCHY
ROOT Hips
{
    OFFSET 0.000000 0.000000 0.000000
    CHANNELS 6 Xposition Yposition Zposition Zrotation Yrotation Xrotation
    JOINT Chest
    {
        OFFSET 0.000000 1.634758 -0.000000
        CHANNELS 3 Zrotation Yrotation Xrotation
        JOINT Chest2
        {
            OFFSET 0.000000 2.197341 0.000000
            CHANNELS 3 Zrotation Yrotation Xrotation
            JOINT Neck
            {
                OFFSET 0.000000 0.961544 0.000000
                CHANNELS 3 Zrotation Yrotation Xrotation
                JOINT Head
                {
                    OFFSET 0.000000 0.632542 -0.032565
                    CHANNELS 3 Zrotation Yrotation Xrotation
                    End Site
                    {
                        OFFSET -0.000001 0.439502 2.922845
                    }
                }
            }
            JOINT LeftCollar
            {
                OFFSET 0.167536 0.778237 -0.168280
                CHANNELS 3 Zrotation Yrotation Xrotation
                JOINT LeftShoulder
                {
                    OFFSET 0.831514 -0.002900 0.006458
                    CHANNELS 3 Zrotation Yrotation Xrotation
                    JOINT LeftElbow
                    {
                        OFFSET 2.272872 -0.026639 0.059314
                        CHANNELS 3 Zrotation Yrotation Xrotation
                        JOINT LeftWrist
                        {
                            OFFSET 2.081982 -0.024402 0.054333
                            CHANNELS 3 Zrotation Yrotation Xrotation
                            JOINT LeftHandThumb1
                            {
                                OFFSET 0.218903 -0.128645 0.283837
                                CHANNELS 3 Zrotation Yrotation Xrotation
                                JOINT LeftHandThumb2
                                {
                                    OFFSET 0.137157 -0.025101 0.077902
                                    CHANNELS 3 Zrotation Yrotation Xrotation
                                    JOINT LeftHandThumb3
                                    {
                                        OFFSET 0.165861 -0.067014 0.039226
                                        CHANNELS 3 Zrotation Yrotation Xrotation
                                        End Site
                                        {
                                            OFFSET 0.241157 -0.045065 0.107930
                                        }
                                    }
                                }
                            }
                            JOINT LeftHandFore1
                            {
                                OFFSET 0.767340 -0.016076 0.196678
                                CHANNELS 3 Zrotation Yrotation Xrotation
                                JOINT LeftHandFore2
                                {
                                    OFFSET 0.215173 -0.024035 0.010864
                                    CHANNELS 3 Zrotation Yrotation Xrotation
                                    JOINT LeftHandFore3
                                    {
                                        OFFSET 0.127998 -0.018363 0.006493
                                        CHANNELS 3 Zrotation Yrotation Xrotation
                                        End Site
                                        {
                                            OFFSET 0.191872 -0.022849 0.005461
                                        }
                                    }
                                }
                            }
                            JOINT LeftHandMiddle1
                            {
                                OFFSET 0.709887 -0.008320 0.018526
                                CHANNELS 3 Zrotation Yrotation Xrotation
                                JOINT LeftHandMiddle2
                                {
                                    OFFSET 0.243305 -0.028680 0.006624
                                    CHANNELS 3 Zrotation Yrotation Xrotation
                                    JOINT LeftHandMiddle3
                                    {
                                        OFFSET 0.145223 -0.016669 0.003951
                                        CHANNELS 3 Zrotation Yrotation Xrotation
                                        End Site
                                        {
                                            OFFSET 0.233621 -0.031666 0.006995
                                        }
                                    }
                                }
                            }
                            JOINT LeftHandRing1
                            {
                                OFFSET 0.743817 -0.005823 -0.153668
                                CHANNELS 3 Zrotation Yrotation Xrotation
                                JOINT LeftHandRing2
                                {
                                    OFFSET 0.349394 -0.050632 -0.009675
                                    CHANNELS 3 Zrotation Yrotation Xrotation
                                    JOINT LeftHandRing3
                                    {
                                        OFFSET 0.134332 -0.023631 0.001421
                                        CHANNELS 3 Zrotation Yrotation Xrotation
                                        End Site
                                        {
                                            OFFSET 0.116893 -0.027460 0.001278
                                        }
                                    }
                                }
                            }
                            JOINT LeftHandLittle1
                            {
                                OFFSET 0.689408 -0.053302 -0.308304
                                CHANNELS 3 Zrotation Yrotation Xrotation
                                JOINT LeftHandLittle2
                                {
                                    OFFSET 0.193251 -0.018757 -0.018874
                                    CHANNELS 3 Zrotation Yrotation Xrotation
                                    JOINT LeftHandLittle3
                                    {
                                        OFFSET 0.116994 -0.025997 -0.011519
                                        CHANNELS 3 Zrotation Yrotation Xrotation
                                        End Site
                                        {
                                            OFFSET 0.189726 -0.012367 -0.011818
                                        }
                                    }
                                }
                            }
                        }
                    }
                }
            }
            JOINT RightCollar
            {
                OFFSET -0.167536 0.778237 -0.168280
                CHANNELS 3 Zrotation Yrotation Xrotation
                JOINT RightShoulder
                {
                    OFFSET -0.831514 -0.002900 0.006457
                    CHANNELS 3 Zrotation Yrotation Xrotation
                    JOINT RightElbow
                    {
                        OFFSET -2.272872 -0.026639 0.059313
                        CHANNELS 3 Zrotation Yrotation Xrotation
                        JOINT RightWrist
                        {
                            OFFSET -2.081982 -0.024402 0.054331
                            CHANNELS 3 Zrotation Yrotation Xrotation
                            JOINT RightHandThumb1
                            {
                                OFFSET -0.218911 -0.128571 0.283837
                                CHANNELS 3 Zrotation Yrotation Xrotation
                                JOINT RightHandThumb2
                                {
                                    OFFSET -0.137157 -0.025101 0.077902
                                    CHANNELS 3 Zrotation Yrotation Xrotation
                                    JOINT RightHandThumb3
                                    {
                                        OFFSET -0.157011 -0.012581 0.093427
                                        CHANNELS 3 Zrotation Yrotation Xrotation
                                        End Site
                                        {
                                            OFFSET -0.195258 0.028102 0.181442
                                        }
                                    }
                                }
                            }
                            JOINT RightHandFore1
                            {
                                OFFSET -0.767344 -0.015991 0.196679
                                CHANNELS 3 Zrotation Yrotation Xrotation
                                JOINT RightHandFore2
                                {
                                    OFFSET -0.205562 -0.058382 0.036508
                                    CHANNELS 3 Zrotation Yrotation Xrotation
                                    JOINT RightHandFore3
                                    {
                                        OFFSET -0.121501 -0.038640 0.022503
                                        CHANNELS 3 Zrotation Yrotation Xrotation
                                        End Site
                                        {
                                            OFFSET -0.182353 -0.052464 0.036900
                                        }
                                    }
                                }
                            }
                            JOINT RightHandMiddle1
                            {
                                OFFSET -0.709887 -0.008302 0.018525
                                CHANNELS 3 Zrotation Yrotation Xrotation
                                JOINT RightHandMiddle2
                                {
                                    OFFSET -0.241251 -0.038863 0.018690
                                    CHANNELS 3 Zrotation Yrotation Xrotation
                                    JOINT RightHandMiddle3
                                    {
                                        OFFSET -0.123249 -0.073915 0.027035
                                        CHANNELS 3 Zrotation Yrotation Xrotation
                                        End Site
                                        {
                                            OFFSET -0.196491 -0.123335 0.042542
                                        }
                                    }
                                }
                            }
                            JOINT RightHandRing1
                            {
                                OFFSET -0.743819 -0.005785 -0.153669
                                CHANNELS 3 Zrotation Yrotation Xrotation
                                JOINT RightHandRing2
                                {
                                    OFFSET -0.339953 -0.072905 -0.062049
                                    CHANNELS 3 Zrotation Yrotation Xrotation
                                    JOINT RightHandRing3
                                    {
                                        OFFSET -0.129907 -0.039256 -0.013712
                                        CHANNELS 3 Zrotation Yrotation Xrotation
                                        End Site
                                        {
                                            OFFSET -0.112175 -0.040971 -0.012589
                                        }
                                    }
                                }
                            }
                            JOINT RightHandLittle1
                            {
                                OFFSET -0.689403 -0.053298 -0.308303
                                CHANNELS 3 Zrotation Yrotation Xrotation
                                JOINT RightHandLittle2
                                {
                                    OFFSET -0.175132 -0.049492 -0.070247
                                    CHANNELS 3 Zrotation Yrotation Xrotation
                                    JOINT RightHandLittle3
                                    {
                                        OFFSET -0.102075 -0.057909 -0.026886
                                        CHANNELS 3 Zrotation Yrotation Xrotation
                                        End Site
                                        {
                                            OFFSET -0.173680 -0.064493 -0.044322
                                        }
                                    }
                                }
                            }
                        }
                    }
                }
            }
        }
    }
    JOINT LeftHip
    {
        OFFSET 0.685143 0.673822 -0.044491
        CHANNELS 3 Zrotation Yrotation Xrotation
        JOINT LeftKnee
        {
            OFFSET 0.085364 -3.750208 0.017676
            CHANNELS 3 Zrotation Yrotation Xrotation
            JOINT LeftAnkle
            {
                OFFSET 0.094583 -4.155206 0.019585
                CHANNELS 3 Zrotation Yrotation Xrotation
                JOINT LeftToe
                {
                    OFFSET -0.000000 -0.395925 0.621478
                    CHANNELS 3 Zrotation Yrotation Xrotation
                    End Site
                    {
                        OFFSET -0.000000 -0.077878 0.321152
                    }
                }
            }
        }
    }
    JOINT RightHip
    {
        OFFSET -0.685143 0.673822 -0.044492
        CHANNELS 3 Zrotation Yrotation Xrotation
        JOINT RightKnee
        {
            OFFSET -0.085364 -3.750208 0.017677
            CHANNELS 3 Zrotation Yrotation Xrotation
            JOINT RightAnkle
            {
                OFFSET -0.094583 -4.155206 0.019585
                CHANNELS 3 Zrotation Yrotation Xrotation
                JOINT RightToe
                {
                    OFFSET -0.000000 -0.395925 0.621478
                    CHANNELS 3 Zrotation Yrotation Xrotation
                    End Site
                    {
                        OFFSET -0.000000 -0.077878 0.321152
                    }
                }
            }
        }
    }
}
MOTION
Frames: 4
Frame Time: 0.033333
-1.498018 8.582274 -1.714540 -127.179405 -52.715004 128.477768 24.111668 -16.506144 3.407424 2.333565 2.290356 -1.027732 16.984674 -16.778765 -1.725799 1.625474 -28.853830 0.009015 0.389541 -9.258727 -0.039966 -52.100178 -57.492134 27.246523 177.971649 -60.497185 -178.824417 35.868275 -3.651546 13.709846 0.000012 0.000009 -0.000010 -7.750772 -1.226650 5.893009 -0.080852 0.826156 0.173162 3.923828 -7.776282 -8.312341 -2.508433 -0.113736 0.112287 -2.464824 -0.084526 0.144840 0.175895 -12.771177 -3.891926 -2.510954 -0.076652 0.089973 -2.467662 -0.078605 0.084362 -0.509197 4.417700 3.748310 -2.513228 -0.035137 -0.017383 -2.468527 -0.047227 0.075591 17.697617 19.243320 11.518588 15.563126 0.675160 -1.063689 -2.467157 0.049546 -0.056962 6.594235 1.036671 -0.269944 2.978010 15.628961 68.188385 -178.032074 58.971329 -178.894501 44.697937 18.550966 -20.105644 -0.000009 0.000005 0.000000 13.573021 -21.235476 27.488426 22.562653 -8.152487 16.613764 78.701225 -1.407550 12.515035 88.477966 3.028344 19.836058 87.254906 3.936668 18.112831 86.857430 -1.165111 8.201114 68.196182 -7.424149 1.752947 85.112984 -12.999962 13.271074 85.505394 5.289888 -0.319115 87.106346 -6.135817 -15.740811 87.875908 -3.400399 -11.695765 77.128807 8.098100 -2.734545 81.180954 -8.706658 -37.992542 86.518158 -7.992074 -26.472929 28.816175 -3.827763 -0.054347 0.146709 0.600916 27.437283 -7.312169 -17.330824 -23.393661 -0.000002 -0.000005 -0.000002 20.290298 -13.928372 -12.409384 -0.054141 -0.371901 16.568426 -1.002628 2.582207 15.999025 -0.000002 -0.000009 0.000000
-1.341595 8.556524 -1.844747 -128.582932 -53.993191 133.631927 22.502575 -15.870503 -1.036451 1.501719 2.296726 -2.062550 16.861107 -16.932045 0.531975 1.621988 -28.801870 4.174286 -0.443948 -9.576080 -0.008223 -46.776310 -49.553326 24.370949 178.001999 -59.751472 -178.859482 26.135693 -3.859054 8.930928 -0.000002 -0.000002 -0.000005 -7.299469 -0.468799 5.400501 -0.272013 3.064544 0.660434 -3.476535 -6.536596 -7.649025 -9.319172 -0.394749 0.419358 -9.156608 -0.287235 0.540238 -6.915211 -11.471252 -3.361250 -9.327201 -0.269828 0.336729 -9.166355 -0.277595 0.315794 -7.484224 3.709728 3.914286 -9.334439 -0.145837 -0.063559 -9.169044 -0.170113 0.283692 9.301126 17.180159 11.211822 7.367362 1.198738 -0.996917 -9.165528 0.132137 -0.211534 6.733871 1.141491 -0.274956 4.123237 16.349199 68.256783 -177.995148 59.922932 -178.851532 44.139225 18.919224 -20.184542 0.000002 -0.000005 -0.000005 13.573022 -21.235481 27.488426 22.562654 -8.152485 16.613770 78.701233 -1.407541 12.515031 88.477966 3.028343 19.836054 87.254906 3.936674 18.112833 86.857422 -1.165112 8.201109 68.196190 -7.424150 1.752949 85.112991 -12.999960 13.271079 85.505394 5.289895 -0.319127 87.106346 -6.135817 -15.740809 87.875908 -3.400404 -11.695768 77.128815 8.098104 -2.734553 81.180954 -8.706660 -37.992538 86.518158 -7.992073 -26.472933 24.847460 -2.950785 -6.357978 0.222029 0.727851 33.925667 -7.037781 -15.220621 -28.993408 0.000000 -0.000000 -0.000005 21.292442 -20.447111 -18.924253 -0.068284 -0.416493 18.623758 3.571782 10.662364 18.961374 0.000000 -0.000007 0.000002
-1.221985 8.531898 -1.983560 -130.342270 -55.740940 136.944290 20.524857 -15.162087 -3.209210 0.588267 2.278838 -2.091709 17.041510 -17.061226 1.567090 1.629665 -28.916227 6.080347 -1.279063 -10.090606 0.023317 -42.790955 -42.886127 23.077562 177.912598 -61.841988 -178.756927 21.782534 -3.727136 6.969480 0.000003 0.000002 -0.000003 -6.635703 0.643955 4.682792 -0.476263 6.350557 1.429692 -14.361878 -4.665034 -6.675571 -19.361343 -0.734930 0.869700 -19.021935 -0.514546 1.121003 -17.342113 -9.514573 -2.589363 -19.374132 -0.514383 0.702574 -19.040106 -0.532090 0.659117 -17.769287 2.706361 4.153288 -19.385584 -0.349235 -0.124350 -19.044081 -0.336331 0.596481 -3.090273 14.198682 10.760421 -4.733489 1.768133 -0.936052 -19.040092 0.116624 -0.423932 6.729763 1.198475 -0.276780 4.012290 16.747808 67.977745 -177.985748 60.155186 -178.840668 43.132828 19.428455 -20.453646 -0.000009 0.000003 0.000015 13.573023 -21.235481 27.488426 22.562651 -8.152485 16.613766 78.701225 -1.407546 12.515036 88.477966 3.028349 19.836054 87.254913 3.936671 18.112829 86.857422 -1.165121 8.201105 68.196182 -7.424146 1.752947 85.112991 -12.999961 13.271073 85.505394 5.289883 -0.319120 87.106346 -6.135818 -15.740811 87.875908 -3.400406 -11.695765 77.128799 8.098093 -2.734552 81.180954 -8.706661 -37.992538 86.518166 -7.992073 -26.472921 19.876968 -2.149962 -10.519320 0.281288 0.809003 38.341858 -6.160234 -13.676848 -32.671429 -0.000004 -0.000017 -0.000001 21.037943 -23.495266 -23.216965 -0.081038 -0.452582 20.305553 6.111580 13.787188 20.722918 0.000001 0.000003 0.000001
-1.112239 8.510024 -2.166198 -131.983002 -57.645191 139.485107 18.384153 -14.473680 -4.520554 -0.408258 2.281389 -1.643517 17.286411 -17.256430 2.340944 1.650559 -29.226072 7.513055 -2.046399 -10.655502 0.053329 -40.245766 -37.970524 22.762354 177.717987 -65.491188 -178.539627 16.899263 -3.538017 5.519062 0.000005 0.000002 -0.000005 -5.831210 1.988332 3.824080 -0.594041 10.315590 2.459022 -27.546879 -2.323452 -5.511401 -31.562445 -1.031894 1.393264 -31.006041 -0.678383 1.804321 -29.966127 -7.075841 -1.677682 -31.576757 -0.747469 1.139543 -31.032442 -0.779390 1.069343 -30.267574 1.549432 4.423835 -31.588600 -0.657702 -0.175888 -31.036179 -0.513087 0.982023 -18.169111 10.673642 10.195243 -19.456493 2.130692 -0.855209 -31.032385 -0.114693 -0.621094 6.681095 1.196613 -0.279226 3.476947 16.825470 67.687645 -177.987488 60.112747 -178.842651 41.852905 20.019171 -20.857634 -0.000002 0.000005 0.000009 13.573020 -21.235477 27.488426 22.562651 -8.152482 16.613768 78.701218 -1.407545 12.515036 88.477974 3.028345 19.836054 87.254906 3.936670 18.112831 86.857414 -1.165120 8.201112 68.196175 -7.424150 1.752952 85.112984 -12.999958 13.271081 85.505386 5.289890 -0.319115 87.106346 -6.135818 -15.740809 87.875908 -3.400402 -11.695766 77.128792 8.098100 -2.734550 81.180946 -8.706663 -37.992538 86.518158 -7.992070 -26.472921 15.088702 -1.540094 -11.420505 0.278785 0.805828 38.164303 -5.661479 -12.303803 -32.557396 -0.000003 -0.000017 -0.000003 20.760048 -26.142769 -26.943241 -0.096238 -0.491720 22.150253 9.092723 15.631570 21.514864 0.000003 0.000015 0.000008
